<svg xmlns="http://www.w3.org/2000/svg" width="309" height="144" fill="none"><g clip-path="url(#a)"><path fill="#F2F2F2" d="M278.571 57.602h-9.313v33.122h9.313V57.602Z"/><path fill="#F2F2F2" d="M284.721 84.493 262.07 56.807l-45.465.427-27.581 27.601.558.368h-.199v57.412h95.277V85.203l.061-.71Z"/><path fill="#E6E6E6" d="m262.094 56.866-28.296 34.086v51.663h50.862V84.467l-22.566-27.601Z"/><path fill="#3F3D56" d="M264.601 114.044h-10.387v9.434h10.387v-9.434ZM264.601 97.716h-10.387V107h10.387v-9.284Z"/><path fill="#fff" d="M264.601 114.044h-10.387v9.434h10.387v-9.434ZM264.601 97.716h-10.387V107h10.387v-9.284ZM218.439 111.541h-10.387v9.434h10.387v-9.434ZM218.439 95.213h-10.387v9.284h10.387v-9.284Z"/><path fill="#F2F2F2" d="M205.08 57.602h-9.313v33.122h9.313V57.602Z"/><path fill="#F2F2F2" d="m211.23 84.493-22.65-27.686-45.466.427-27.58 27.601.557.368h-.199v57.412h95.277V85.203l.061-.71Z"/><path fill="#E6E6E6" d="m188.603 56.866-28.296 34.086v51.663h50.862V84.467l-22.566-27.601Z"/><path fill="#3F3D56" d="M191.11 114.044h-10.387v9.434h10.387v-9.434ZM191.11 97.716h-10.387V107h10.387v-9.284Z"/><path fill="#fff" d="M191.11 114.044h-10.387v9.434h10.387v-9.434ZM191.11 97.716h-10.387V107h10.387v-9.284ZM144.949 111.541h-10.388v9.434h10.388v-9.434ZM144.949 95.213h-10.388v9.284h10.388v-9.284Z"/><path fill="#F2F2F2" d="M129.83 29.017h-12.444v44.259h12.444V29.017Z"/><path fill="#F2F2F2" d="m138.048 64.95-30.266-36.995-60.753.57-36.854 36.883.744.491h-.266v76.716h127.313V65.899l.082-.95Z"/><path fill="#E6E6E6" d="M107.813 28.034 70.003 73.58v69.035h67.963v-77.7l-30.153-36.881Z"/><path fill="#3F3D56" d="M111.164 104.438h-13.88v12.605h13.88v-12.605ZM111.164 82.62h-13.88v12.405h13.88V82.619Z"/><path fill="#fff" d="M111.164 104.438h-13.88v12.605h13.88v-12.605ZM111.164 82.62h-13.88v12.405h13.88V82.619ZM49.48 101.093H35.6v12.605h13.88v-12.605ZM49.48 79.275H35.6V91.68h13.88V79.275Z"/><path fill="#3F3D56" d="M297.653 142.331H0v.635h297.653v-.635ZM46.896 130.664c4.962 0 8.985-8.433 8.985-18.837S51.858 92.99 46.896 92.99c-4.963 0-8.986 8.433-8.986 18.837s4.023 18.837 8.986 18.837Z"/><path fill="#6C63FF" d="M47.726 142.661c-3.6-22.185-.036-44.29 0-44.51l.7.122c-.036.219-3.578 22.208 0 44.268l-.7.12Z"/><path fill="#6C63FF" d="m54.807 107.776-8.126 4.466.335.643 8.126-4.465-.335-.644ZM38.441 110.013l-.335.643 8.124 4.468.335-.643-8.124-4.468Z"/><path fill="#4D7C0F" d="M25.307 119.619c9.706 0 17.574-16.495 17.574-36.844 0-20.348-7.868-36.843-17.574-36.843-9.706 0-17.575 16.495-17.575 36.843 0 20.349 7.869 36.844 17.575 36.844Z"/><path fill="#3F3D56" d="M27.264 143.026c-7.03-43.334-.07-86.51 0-86.941l.7.122c-.07.43-7.009 43.49 0 86.699l-.7.12Z"/><path fill="#3F3D56" d="m40.94 75.16-15.893 8.734.335.644 15.892-8.734-.335-.644ZM8.61 79.536l-.335.643 15.89 8.738.335-.643-15.89-8.739Z"/><path fill="#4D7C0F" d="M66.93 111.018c13.282 0 24.05-22.573 24.05-50.418S80.211 10.182 66.93 10.182 42.88 32.755 42.88 60.6s10.768 50.418 24.05 50.418Z"/><path fill="#3F3D56" d="M69.738 143.026c-9.615-59.277-.097-118.338 0-118.927l.7.122c-.097.588-9.595 59.532 0 118.685l-.7.12Z"/><path fill="#3F3D56" d="M88.384 50.298 66.637 62.249l.335.644L88.719 50.94l-.335-.643ZM44.02 56.285l-.335.643L65.43 68.886l.335-.643L44.02 56.285ZM268.961 130.664c4.962 0 8.985-8.433 8.985-18.837s-4.023-18.837-8.985-18.837c-4.963 0-8.986 8.433-8.986 18.837s4.023 18.837 8.986 18.837Z"/><path fill="#6C63FF" d="M268.131 142.661c3.599-22.185.036-44.29 0-44.51l-.7.122c.036.219 3.578 22.208-.001 44.268l.701.12Z"/><path fill="#6C63FF" d="m261.05 107.776-.335.644 8.125 4.465.335-.643-8.125-4.466ZM277.416 110.013l-8.125 4.468.335.643 8.125-4.468-.335-.643Z"/><path fill="#4D7C0F" d="M290.55 119.619c9.706 0 17.574-16.495 17.574-36.844 0-20.348-7.868-36.843-17.574-36.843-9.706 0-17.574 16.495-17.574 36.843 0 20.349 7.868 36.844 17.574 36.844Z"/><path fill="#3F3D56" d="M288.592 143.026c7.03-43.334.071-86.51 0-86.941l-.7.122c.071.43 7.009 43.49 0 86.699l.7.12Z"/><path fill="#3F3D56" d="m274.917 75.16-.335.644 15.892 8.734.335-.644-15.892-8.734ZM307.247 79.536l-15.89 8.738.335.643 15.89-8.738-.335-.644Z"/><path fill="#4D7C0F" d="M248.926 111.018c13.282 0 24.049-22.573 24.049-50.418s-10.767-50.418-24.049-50.418-24.049 22.573-24.049 50.418 10.767 50.418 24.049 50.418Z"/><path fill="#3F3D56" d="M246.119 143.026c9.615-59.277.097-118.338-.001-118.927l-.7.122c.097.588 9.595 59.532 0 118.685l.701.12Z"/><path fill="#3F3D56" d="m227.472 50.298-.335.643 21.748 11.952.335-.644-21.748-11.951ZM271.836 56.285l-21.744 11.958.335.643 21.745-11.958-.336-.643ZM182.061 32.191l2.842-2.335c-2.208-.25-3.115.987-3.486 1.966-1.726-.736-3.604.229-3.604.229l5.688 2.121a4.419 4.419 0 0 0-1.44-1.98ZM112.584 11.57l2.843-2.337c-2.208-.25-3.116.987-3.487 1.967-1.725-.736-3.603.229-3.603.229l5.687 2.121a4.41 4.41 0 0 0-1.44-1.98ZM225.908 2.369l2.843-2.336c-2.208-.25-3.116.987-3.487 1.966-1.725-.736-3.603.229-3.603.229l5.687 2.121a4.41 4.41 0 0 0-1.44-1.98ZM231.647 138.661a4.22 4.22 0 0 0-2.152.593 4.573 4.573 0 0 0-2.373-1.168 4.514 4.514 0 0 0-2.609.351 4.657 4.657 0 0 0-2.001 1.756 4.844 4.844 0 0 0-.746 2.593h14.189a4.487 4.487 0 0 0-1.364-2.933 4.257 4.257 0 0 0-2.944-1.192ZM87.445 138.661c-.756 0-1.498.205-2.152.593a4.577 4.577 0 0 0-2.373-1.168 4.514 4.514 0 0 0-2.61.351 4.664 4.664 0 0 0-2 1.756 4.846 4.846 0 0 0-.746 2.593h14.189a4.487 4.487 0 0 0-1.364-2.933 4.258 4.258 0 0 0-2.944-1.192ZM161.245 138.661c-.756 0-1.498.205-2.152.593a4.58 4.58 0 0 0-2.374-1.168 4.514 4.514 0 0 0-2.609.351 4.662 4.662 0 0 0-2.001 1.756 4.834 4.834 0 0 0-.745 2.593h14.188a4.487 4.487 0 0 0-1.364-2.933 4.257 4.257 0 0 0-2.943-1.192ZM145.672 128.247h-40.935v1.357h6.384v12.889h1.321v-12.889h24.865v12.889h1.321v-12.889h7.044v-1.357ZM145.753 124.188h-40.935v1.357h40.935v-1.357ZM145.753 120.796h-40.935v1.357h40.935v-1.357ZM145.753 117.405h-40.935v1.356h40.935v-1.356ZM209.591 128.247h-40.935v1.357h6.384v12.889h1.32v-12.889h24.866v12.889h1.32v-12.889h7.045v-1.357ZM209.671 124.188h-40.935v1.357h40.935v-1.357ZM209.671 120.796h-40.935v1.357h40.935v-1.357ZM209.671 117.405h-40.935v1.356h40.935v-1.356Z"/></g><defs><clipPath id="a"><path fill="#fff" d="M0 0h308.124v143.026H0z"/></clipPath></defs></svg>