<svg xmlns="http://www.w3.org/2000/svg" width="200" height="144" fill="none"><g clip-path="url(#a)"><path fill="#F2F2F2" d="M121.273 43.393c.249.01.496-.05.706-.177.21-.126.375-.31.471-.527.096-.218.119-.458.066-.688a1.135 1.135 0 0 0-.362-.6 35.227 35.227 0 0 1-.083-.312l.033-.075c1.118-2.522 4.909-2.505 6.018.02.984 2.243 2.237 4.488 2.546 6.859a8.663 8.663 0 0 1-.17 3.139 34.93 34.93 0 0 0 3.52-15.199 33.274 33.274 0 0 0-.232-3.94 34.93 34.93 0 0 0-.532-3.195c-1.239-5.736-3.9-11.113-7.763-15.689-1.869-.965-3.381-2.448-4.332-4.25a7.254 7.254 0 0 1-.723-2.054c.211.026.796-3.012.636-3.198.294-.422.821-.632 1.142-1.043 1.596-2.047 3.796-1.69 4.944 1.092 2.453 1.17 2.477 3.112.972 4.98-.958 1.188-1.09 2.796-1.93 4.068.087.104.177.206.263.31a37.07 37.07 0 0 1 4.112 6.161c-.327-2.413.156-5.32.978-7.194.936-2.135 2.69-3.933 4.234-5.779 1.856-2.217 5.661-1.25 5.988 1.561l.009.082c-.229.122-.454.252-.674.39-.276.174-.49.423-.614.714a1.483 1.483 0 0 0-.079.918c.072.307.24.586.482.8.242.215.547.356.876.403l.033.005a14.77 14.77 0 0 1-.432 2.319c1.982 7.247-2.297 9.887-8.406 10.006-.134.065-.266.13-.401.193a36.256 36.256 0 0 1 2.165 9.633 34.114 34.114 0 0 1-.028 5.824l.01-.07c.443-2.154 1.658-4.097 3.441-5.503 2.647-2.056 6.388-2.814 9.244-4.467 1.375-.796 3.137.233 2.897 1.74l-.012.072a11.416 11.416 0 0 0-1.915.956c-.276.174-.49.424-.613.715a1.476 1.476 0 0 0-.08.918c.072.306.24.585.482.8.242.215.548.355.876.403l.033.005.069.01a15.428 15.428 0 0 1-3.018 4.47c-1.239 6.326-6.561 6.927-12.254 5.084h-.004a36.584 36.584 0 0 1-2.7 7.456h-9.647c-.035-.102-.066-.206-.097-.308.893.053 1.79.003 2.67-.15-.716-.83-1.432-1.668-2.148-2.498a.58.58 0 0 1-.045-.05c-.363-.425-.729-.846-1.092-1.271a14.36 14.36 0 0 1 .47-3.869Z"/><path fill="#2F2E41" d="M152.247 20.045c-1.794-6.185 12.673-11.488 16.472-6.507.528-.709 2.481-1.139 3.377-.921.895.217 1.649.76 2.384 1.285 1.01.735 2.058 1.495 2.678 2.55.624 1.052.721 2.485-.12 3.398-.666.725-2.632 1.194-3.633 1.385-.699.135-1.286.244-1.792.322a3.109 3.109 0 0 1-.597-2.142c-.34.217-.625.503-.835.836-.21.334-.339.707-.378 1.093-.013.16 5.646 19.853 5.646 19.853-.68.366-1.395.67-2.136.908a24.785 24.785 0 0 1-3.331-6.864 20.808 20.808 0 0 0 .065 4.887c.113.91.276 1.813.487 2.707-6.725 1.373-16.84.92-21.241-4.918l-.002-.072a.969.969 0 0 0-.249-.629 1.067 1.067 0 0 0-.615-.335 1.104 1.104 0 0 0-.7.11 1.014 1.014 0 0 0-.466.507c-.107.258-.205.48-.293.658-1.281-4.335.377-9.353 5.279-18.11ZM140.803 123.733v.203a.766.766 0 0 1 0-.203ZM147.388 88.733c.171-.044.346-.077.521-.097a8.024 8.024 0 0 0-.521.097ZM147.236 88.77a3.89 3.89 0 0 1 .152-.038c-.051.013-.1.022-.152.037Z"/><path fill="#2F2E41" d="M195.893 143.999h-24.651a1.838 1.838 0 0 1-.692-1.053 1.767 1.767 0 0 1 .164-1.23c.674-1.46-.646-2.795-.646-2.795a3.892 3.892 0 0 1-.907-1.727 3.76 3.76 0 0 1 .062-1.927c.653-2.158-1.906-8.247-1.906-8.247s-1.38 7.863-3.071 16.979h-23.443a3.948 3.948 0 0 1-.6-2.086c0-.734.207-1.454.6-2.087 1.366-2.191 0-2.611 0-2.611s-1.367-2.451 0-4.231c1.366-1.78 0-9.048 0-9.048.051.321.44-.263 1.039-1.488.913-1.864 2.307-5.216 3.716-9.107a132.674 132.674 0 0 0 2.87-8.82h.002c.223-.785.434-1.563.633-2.334.389-1.511.722-2.98.976-4.358.55-2.97.731-5.521.309-7.18-.35-1.382-1.117-2.143-2.439-2.013.709-.11 1.747-.216 3.026-.315.23-.018.469-.035.716-.055 9.539-.681 30.005-1.073 30.005-1.073l6.269 10.616 7.939 13.448s-.216 18.04.029 32.742Z"/><path fill="#E6E6E6" d="m169.582 41.309-14.443-2.898-2.867 5.46-9.657 5.286s6.224 24.07 6.189 27.455c-.09 8.595-14.632 27.861-3.648 26.379 10.984-1.482 13.215-7.69 16.741-6.709 3.18.885 7.063 4.824 9.662 2.007 2.6-2.817 3.515.436 5.159.548.781.054.311-3.556 2.276.112 1.965 3.67 12.388-1.27 8.855-4.61-5.883-5.564-7.078-46.576-7.078-46.576l-6.549-1.906-4.64-4.548Z"/><path fill="#A0616A" d="M142.342 128.718c.58-.654.867-1.497.801-2.348a3.221 3.221 0 0 0-1.158-2.212 3.41 3.41 0 0 0-.446-.305l2.415-11.208-5.582-3.159-1.553 15.691a3.11 3.11 0 0 0-.308 2.088 3.24 3.24 0 0 0 2.226 2.437 3.487 3.487 0 0 0 2.526-.17 3.284 3.284 0 0 0 1.079-.814Z"/><path fill="#E6E6E6" d="M159.675 69.642c-.035-.36-.521-.524-1.195-.75a7.59 7.59 0 0 1-1.909-.855c-1.491-1.018-.904-2.084-.093-3.556.159-.286.324-.584.478-.894.459-.917-.272-4.701-2.177-11.249-.586-2.016-.584-3.44-.99-4.384-.404-.944-1.213-1.41-3.419-1.507-2.666-.128-5.276.75-7.259 2.44l-.163.14a9.74 9.74 0 0 0-.296.275c-1.834 1.744-2.883 4.092-2.929 6.551l-.01.42-.455 20.004-1.279 17.555-1.763 24.183 1.306.06 5.21.246.632.029 1.5-5.948 1.804-7.157.663-2.629 2.057-8.156.96-3.812.587-2.327.238-.95 1.166-4.62c.027-.098 2.708-10.102 5.799-11.775 1.154-.623 1.57-.985 1.537-1.334Z"/><path fill="#A0616A" d="M194.357 128.599a3.198 3.198 0 0 1-1.063-2.254 3.172 3.172 0 0 1 .9-2.316c.125-.127.262-.243.408-.348l-3.674-10.898 5.192-3.708 3.325 15.442c.415.607.606 1.326.543 2.045a3.18 3.18 0 0 1-.89 1.933 3.285 3.285 0 0 1-1.046.716 3.466 3.466 0 0 1-2.53.088 3.357 3.357 0 0 1-1.165-.7Z"/><path fill="#E6E6E6" d="M196.896 104.953s-4.048-13.472-2.814-14.93c1.235-1.459-2.412-1.744-.84-4.46 1.571-2.716-.598-3.17-.598-3.17l-1.177-6.245-2.104-15.34-.064-.456-.612-4.462a9.222 9.222 0 0 0-1.296-3.614 9.755 9.755 0 0 0-2.689-2.845 10.44 10.44 0 0 0-.963-.608 10.576 10.576 0 0 0-6.708-1.205c-4.364.643-3.006 2.182-3.714 6.305-1.15 6.704-1.448 10.54-.887 11.406.188.292.387.571.576.84.975 1.383 1.679 2.38.312 3.547a7.537 7.537 0 0 1-1.801 1.042c-.643.294-1.108.505-1.102.867.008.35.462.667 1.678 1.17 1.475.61 3.058 2.916 4.355 5.272a56.582 56.582 0 0 1 2.749 5.846l11.147 29.647 1.818 4.835.627-.093 5.15-.773 1.292-.193-2.335-12.383Z"/><path fill="#A0616A" d="M163.488 38.207c6.508 0 11.783-4.99 11.783-11.143 0-6.154-5.275-11.143-11.783-11.143-6.507 0-11.783 4.989-11.783 11.143 0 6.154 5.276 11.143 11.783 11.143Z"/><path fill="#2F2E41" d="M145.815 20.914c-1.793-6.185 12.674-11.488 16.473-6.508.528-.708 2.481-1.138 3.376-.92.896.217 1.65.76 2.385 1.285 1.01.735 2.058 1.495 2.678 2.55.624 1.052.721 2.485-.12 3.398-.666.725-2.632 1.194-3.633 1.385a51.39 51.39 0 0 1-1.792.322 3.11 3.11 0 0 1-.597-2.142c-.34.217-.625.503-.835.836-.21.334-.339.707-.378 1.093-.014.16 5.646 19.853 5.646 19.853-.68.366-1.395.67-2.136.908a24.785 24.785 0 0 1-3.331-6.864 20.807 20.807 0 0 0 .065 4.887c.113.91.276 1.813.487 2.707-6.725 1.372-16.841.92-21.241-4.918a1.76 1.76 0 0 1-.002-.072.964.964 0 0 0-.25-.629 1.062 1.062 0 0 0-.614-.335 1.103 1.103 0 0 0-.7.11 1.014 1.014 0 0 0-.466.507c-.107.258-.205.48-.293.658-1.281-4.335.377-9.353 5.278-18.11Z"/><path fill="#F2F2F2" d="M87.38 59.418c-.25.011-.495-.05-.706-.177a1.168 1.168 0 0 1-.47-.527 1.091 1.091 0 0 1-.067-.688c.053-.23.18-.44.362-.6l.084-.312-.034-.075c-1.118-2.522-4.909-2.505-6.018.02-.984 2.243-2.237 4.488-2.546 6.859a8.643 8.643 0 0 0 .17 3.139 34.93 34.93 0 0 1-3.52-15.199c0-1.316.077-2.632.232-3.94.128-1.072.305-2.137.532-3.195 1.24-5.736 3.9-11.113 7.763-15.689 1.87-.964 3.381-2.448 4.332-4.25.344-.649.588-1.34.723-2.054-.211.026-.796-3.012-.636-3.198-.294-.422-.82-.632-1.142-1.043-1.596-2.047-3.796-1.69-4.944 1.092-2.453 1.17-2.477 3.113-.972 4.98.958 1.188 1.09 2.796 1.93 4.068-.087.104-.177.206-.263.31a37.03 37.03 0 0 0-4.112 6.161c.327-2.413-.156-5.32-.978-7.194-.935-2.135-2.69-3.933-4.234-5.779-1.856-2.217-5.66-1.25-5.988 1.561l-.009.082c.23.122.454.252.674.39.276.174.49.423.614.715.123.29.151.61.08.917a1.54 1.54 0 0 1-.483.8 1.688 1.688 0 0 1-.876.403l-.033.005c.082.782.226 1.557.432 2.319-1.982 7.247 2.297 9.887 8.406 10.006.134.065.266.13.4.193a36.253 36.253 0 0 0-2.164 9.633 34.125 34.125 0 0 0 .028 5.823l-.01-.068c-.443-2.154-1.658-4.098-3.44-5.503-2.648-2.057-6.389-2.815-9.245-4.468-1.375-.796-3.137.233-2.897 1.74l.012.072a11.352 11.352 0 0 1 1.915.956c.276.174.49.423.614.715.123.291.151.611.08.918a1.54 1.54 0 0 1-.483.8 1.688 1.688 0 0 1-.876.403l-.033.005-.07.01a15.442 15.442 0 0 0 3.02 4.47c1.238 6.326 6.56 6.927 12.253 5.084h.004a36.634 36.634 0 0 0 2.7 7.456h9.647c.034-.102.066-.206.097-.308-.893.053-1.79.003-2.67-.15.716-.83 1.432-1.668 2.148-2.498a.564.564 0 0 0 .045-.05c.363-.424.73-.846 1.092-1.271a14.396 14.396 0 0 0-.47-3.869Z"/><path fill="#2F2E41" d="M42.367 13.538c-.22.482-6.97.43-7.28.86-2.384 3.317 6.21 17.431 3.826 20.753l-.332.374a15.974 15.974 0 0 0 2.234-1.192c.064-1.36.127-2.723.196-4.083.714.864 1.29 1.822 1.71 2.844.555-.37 1.01-1.056 3.39-2.405.963-1 2.073-1.865 3.296-2.566l-7.04-14.585Z"/><path fill="#FFB6B6" d="M47.269 40.724a5.801 5.801 0 0 0-2.48-.83 5.887 5.887 0 0 0-2.606.335 5.603 5.603 0 0 0-2.156 1.424 5.2 5.2 0 0 0-1.229 2.199l-10.26 25.28-17.633-9.468A5.013 5.013 0 0 0 9.648 56.7a5.51 5.51 0 0 0-2.858-1.698 5.754 5.754 0 0 0-3.368.216 5.397 5.397 0 0 0-2.59 2.048 4.946 4.946 0 0 0-.821 3.096 5.013 5.013 0 0 0 1.26 2.961 5.51 5.51 0 0 0 2.86 1.695 5.753 5.753 0 0 0 3.367-.22c3.714 3.748 19.814 19.116 26.48 13.112 5.602-5.047 13.687-24.609 15.633-31.364a5.017 5.017 0 0 0-.168-3.272 5.357 5.357 0 0 0-2.174-2.55Z"/><path fill="#FFB6B6" d="m28.005 78.97 3.238 13.838 23.673 2.025 2.176-12.05-29.087-3.813Z"/><path fill="#2F2E41" d="M64.167 114.457c-.011.198-.024.394-.04.593a4660.059 4660.059 0 0 0-2.206 28.949H12.268l9.63-27.374s3.888-2.024 1.909-5.425c-1.98-3.401 1.915-.691 1.951-5.548.037-4.858 3.527-10.025 3.527-10.025l.573-7.355.327.007 25.84.407.472.008.794 6.313c4.819 5.423 7.277 12.376 6.877 19.45Z"/><path fill="#6C63FF" d="m42.78 34.018 11.784-.574 5.473 8.178s10.298 1.628 9.584 13.104c-.714 11.476-12.53 21.546-12.53 21.546l.506-1.638-.878 2.37.113 1.331 1.197 1.41.123 1.458-1.06 2.306a1.266 1.266 0 0 1 .001 1.394 1.37 1.37 0 0 1-.568.486 1.465 1.465 0 0 1-.755.129l-17.026-1.614c-.388-1.008-.699-2.215-2.252-.206l-1.604-.147-6.668-.611-.392-1.352a4.964 4.964 0 0 1-.102-2.357c.157-.783.5-1.522 1.003-2.16a6.568 6.568 0 0 1 .423-5.187l.032-.06.708-.559S22.145 60.26 31.038 51.97l3.569-5.738 3.993-4.607 4.18-7.607Z"/><path fill="#FFB6B6" d="M45.713 29.19c6.171 0 11.174-4.731 11.174-10.567 0-5.837-5.003-10.568-11.174-10.568-6.171 0-11.174 4.732-11.174 10.568 0 5.836 5.003 10.567 11.174 10.567Z"/><path fill="#2F2E41" d="M54.2 33.846a5.052 5.052 0 0 1-1.802-2.797 10.351 10.351 0 0 0 .16 3.992c-.606.43-1.193.84-1.748 1.21a11.076 11.076 0 0 0-1.71-2.844c-.068 1.36-.132 2.723-.196 4.083-.709.454-1.456.852-2.234 1.191l.332-.374c2.384-3.321-3.785-9.435-1.4-12.752.668-.93-2.353-8.274-4.655-8.605-2.047-.293-1.96.267-3.944.675a9.085 9.085 0 0 0-.951-2.327 7.278 7.278 0 0 1-.077 2.452c-.706.026-1.26-.4-2.011-.508-4.79-.692-4.304-5.593-2.971-7.146 1.338-1.549 5.778-2.014 7.825-2.517.187-.172.61-.065.796-.228 3.924-3.396 9.171-3.958 13.893-2.453 5.036 1.605 8.176 4.711 9.787 9.5l.462 3.833c.415 1.232-.107 6.965-.462 8.214-1.38 4.854-4.321 2.431-9.094 7.4Z"/><path fill="#FFB6B6" d="m70.493 83.91-.44-32.4c-.023-1.373-.616-2.682-1.65-3.645a5.699 5.699 0 0 0-3.88-1.503c-.751 0-1.494.145-2.184.425-.69.28-1.312.691-1.83 1.206a5.196 5.196 0 0 0-1.176 1.791A4.971 4.971 0 0 0 59 51.87l1.548 33.643.03 20.48a4.762 4.762 0 0 0-2.21 1.783 4.375 4.375 0 0 0-.726 2.659 4.42 4.42 0 0 0 1.019 2.572 4.843 4.843 0 0 0 2.395 1.554 5.09 5.09 0 0 0 2.904-.028 4.83 4.83 0 0 0 2.361-1.598c.595-.75.932-1.654.964-2.591a4.383 4.383 0 0 0-.782-2.645l3.99-23.789Z"/><path fill="#2F2E41" d="M128.162 125.829s-.68 11.571-.992 18.171h-23.423c-.482-6.006-.644-10.418-.644-10.418L101.821 144H78.146l-1.468-19.295 7.093-16.628s38.439-2.521 42.005.677c3.563 3.196 2.386 17.075 2.386 17.075Z"/><path fill="#FFB6B6" d="M107.45 28.485c7.066 0 12.794-5.417 12.794-12.1 0-6.681-5.728-12.099-12.794-12.099-7.066 0-12.794 5.418-12.794 12.1 0 6.682 5.728 12.1 12.794 12.1Z"/><path fill="#2F2E41" d="M122.363 12.454c-1.314.567-2.166 4.67-3.199 3.717-1.033-.954-.964-2.196-2.356-2.548-1.125-.286-2.335.04-3.361.555-.183.091-.36.19-.533.288a4.652 4.652 0 0 0-.35-.203 4.275 4.275 0 0 0-2.992-.318 3.983 3.983 0 0 1 1.971 1.374c-.344.218-.691.436-1.047.629-2.972 1.622-7.2-1.905-10.327-3.23 1.959 3.477.994 4.917-.707 8.513l-.059.205c.097-.901-2.852-1.573-2.68-.304.12.9.945 2.902 1.406 3.698-3.288-3.596-5.535-7.996-5.061-12.536.103-.953.072-1.96.592-2.787.52-.824 1.606-1.401 2.567-1.087a7.662 7.662 0 0 1 .969-4.171 8.227 8.227 0 0 1 3.095-3.11 8.849 8.849 0 0 1 4.344-1.167 8.862 8.862 0 0 1 4.362 1.107c1.227.681 2.253 1.645 3.378 2.476s2.423 1.556 3.85 1.624c.905.042 1.89-.167 2.668.276.901.515 1.055 1.592 1.19 2.628a4.19 4.19 0 0 0-2.188.861 4.16 4.16 0 0 1 2.432.507c.476 1.713.427 2.093 2.036 3.003Z"/><path fill="#6C63FF" d="M78.202 113.931c10.896-12.061 7.216-27.4 2.891-42.886l.823-22.876a6.714 6.714 0 0 1 .949-3.197 7.174 7.174 0 0 1 2.4-2.423l11.122-6.872 4.329-5.92 11.933 1.13 6.617 6.617 7.325 5.288c1.839 1.328 3.239 3.126 4.033 5.18a10.88 10.88 0 0 1 .452 6.42l-7.009 29.978s2.931 15.54 1.143 17.257c-1.789 1.716-6.399.001-2.743 1.927 4.386 2.313 8.375 1.886 6.155 3.985-2.22 2.1.589 5.018.589 5.018l-51.009 1.374Z"/><path fill="#FFB6B6" d="m82.86 131.459 1.817-12.238-7.248-1.957-1.433 13.003a4.106 4.106 0 0 0-1.255 1.929 3.922 3.922 0 0 0 .008 2.265 4.117 4.117 0 0 0 1.267 1.922 4.474 4.474 0 0 0 2.147 1.002c.8.139 1.626.064 2.383-.216a4.359 4.359 0 0 0 1.906-1.371 4.009 4.009 0 0 0 .857-2.115 3.943 3.943 0 0 0-.448-2.224Z"/><path fill="#6C63FF" d="M96.659 37.883s-20.63 6.35-21.122 10.996c-.492 4.646-.329 7.49-2.506 26.081l.115 50.08s13.83 2.801 12.412-.194c-1.418-2.994-.923-4.403-.923-4.403s2.965-1.106 2.223-4.622c-.743-3.516 2.98-20.938 2.98-20.938l2.35-31.246 4.47-25.754Z"/><path fill="#FFB6B6" d="m122.096 130.811-.967-12.324 7.367-1.505.532 13.064a4.07 4.07 0 0 1 1.119 2.003 3.927 3.927 0 0 1-.164 2.259 4.157 4.157 0 0 1-1.397 1.839 4.516 4.516 0 0 1-2.212.868 4.608 4.608 0 0 1-2.364-.363 4.32 4.32 0 0 1-1.807-1.486 3.986 3.986 0 0 1-.709-2.163 3.955 3.955 0 0 1 .602-2.192Z"/><path fill="#6C63FF" d="M114.795 36.582s20.147 7.611 20.316 12.278c.17 4.666-.189 7.494.698 26.18l-3.576 49.966s-13.995 1.94-12.372-.96c1.622-2.901 1.226-4.337 1.226-4.337s-2.883-1.287-1.899-4.75c.983-3.462-1.527-21.077-1.527-21.077l-.185-31.325-2.681-25.975Z"/></g><defs><clipPath id="a"><path fill="#fff" d="M0 0h200v144H0z"/></clipPath></defs></svg>