<svg xmlns="http://www.w3.org/2000/svg" width="40" height="40" fill="none" viewBox="0 0 24 24"><circle cx="12" cy="12" r="11" fill="#fff"/><path fill="#08C" d="M12 0C5.371 0 0 5.372 0 12c0 6.627 5.371 12 12 12 6.627 0 12-5.373 12-12 0-6.628-5.373-12-12-12Zm4.869 7.482-2.197 9.178c-.142.631-.522.776-1.01.481l-2.426-1.562-1.27 1.228c-.161.16-.297.296-.606.296l.193-2.458 4.898-4.726c.212-.184-.03-.289-.307-.104L7.791 13.85l-2.335-.711c-.612-.19-.629-.614.139-.925l10.543-4.62c.508-.206.898.077.731-.112Z"/></svg>